<?xml version="1.0" standalone="no"?>
<!DOCTYPE svg PUBLIC "-//W3C//DTD SVG 20010904//EN"
 "http://www.w3.org/TR/2001/REC-SVG-20010904/DTD/svg10.dtd">
<svg version="1.0" xmlns="http://www.w3.org/2000/svg"
 width="89.000000pt" height="89.000000pt" viewBox="0 0 89.000000 89.000000"
 preserveAspectRatio="xMidYMid meet">
<metadata>
Created by potrace 1.11, written by Peter Selinger 2001-2013
</metadata>
<g transform="translate(0.000000,89.000000) scale(0.100000,-0.100000)"
fill="#000000" stroke="none">
<path d="M355 870 c-16 -18 -16 -22 -2 -43 20 -30 45 -30 65 1 15 23 15 26 -7
43 -29 24 -34 24 -56 -1z m45 -19 c0 -12 -20 -25 -27 -18 -7 7 6 27 18 27 5 0
9 -4 9 -9z"/>
<path d="M678 799 c-44 -25 -3 -93 42 -69 26 14 26 56 1 70 -23 12 -22 12 -43
-1z m34 -34 c0 -5 -5 -11 -11 -13 -6 -2 -11 4 -11 13 0 9 5 15 11 13 6 -2 11
-8 11 -13z"/>
<path d="M331 774 c-138 -50 -224 -171 -222 -314 0 -35 6 -80 12 -100 19 -57
78 -139 125 -171 l43 -30 -26 -57 c-49 -109 -66 -100 176 -100 116 0 211 2
211 4 0 3 -14 39 -32 80 -30 73 -31 77 -13 87 44 24 103 90 130 144 25 50 29
69 29 143 0 72 -4 93 -27 141 -31 63 -93 126 -159 160 -57 30 -183 36 -247 13z
m230 -41 c167 -74 225 -286 122 -441 -33 -48 -113 -112 -113 -90 0 8 12 21 26
28 68 37 125 155 119 248 -15 232 -286 343 -461 189 -68 -60 -94 -122 -91
-217 4 -93 26 -141 99 -204 29 -26 46 -46 37 -46 -26 0 -93 65 -124 121 -27
48 -30 63 -30 139 0 70 4 93 23 130 41 78 106 133 192 161 41 14 152 4 201
-18z m-115 -90 c-9 -102 -18 -153 -25 -153 -3 1 -46 27 -96 60 l-89 59 37 34
c38 37 102 65 151 66 l28 1 -6 -67z m97 41 c40 -20 95 -71 112 -105 l14 -26
-67 -23 c-161 -53 -151 -51 -147 -27 2 12 6 47 9 77 14 129 18 134 79 104z
m-222 -163 l92 -58 -98 -58 c-107 -65 -109 -64 -121 13 -9 61 10 162 31 162 3
0 46 -26 96 -59z m362 -91 c-6 -40 -24 -86 -46 -114 -14 -19 -18 -16 -91 54
-42 40 -76 77 -76 81 0 4 46 23 103 42 l102 34 7 -31 c4 -17 4 -47 1 -66z
m-319 -101 c-20 -46 -37 -85 -38 -86 -6 -7 -86 61 -86 72 0 11 150 108 157
101 2 -1 -13 -40 -33 -87z m111 7 c46 -100 46 -107 10 -118 -36 -10 -125 0
-125 14 0 13 71 178 77 178 2 0 19 -33 38 -74z m78 -7 l51 -51 -24 -20 c-21
-17 -24 -17 -33 -3 -20 36 -56 125 -51 125 3 0 29 -23 57 -51z m-120 -149 c23
0 57 4 75 9 25 7 32 7 29 -2 -5 -15 -41 -25 -98 -26 -51 -1 -112 16 -104 30 3
4 17 4 31 -1 14 -6 44 -10 67 -10z m7 -45 c41 0 84 4 96 8 17 6 23 0 42 -46
12 -29 22 -55 22 -58 0 -3 -74 -6 -164 -6 l-165 0 20 50 c27 68 28 69 52 60
12 -4 56 -8 97 -8z"/>
<path d="M76 684 c-21 -21 -20 -37 3 -58 15 -14 24 -15 39 -7 28 15 33 35 16
60 -18 25 -37 27 -58 5z m36 -29 c0 -5 -5 -11 -11 -13 -6 -2 -11 4 -11 13 0 9
5 15 11 13 6 -2 11 -8 11 -13z"/>
<path d="M798 519 c-22 -12 -23 -52 -3 -69 12 -10 21 -10 40 -2 31 14 34 56 6
72 -23 12 -22 12 -43 -1z m34 -34 c0 -5 -5 -11 -11 -13 -6 -2 -11 4 -11 13 0
9 5 15 11 13 6 -2 11 -8 11 -13z"/>
<path d="M32 407 c-22 -29 -21 -47 3 -63 41 -27 83 12 57 54 -12 17 -49 23
-60 9z m38 -32 c0 -8 -4 -15 -9 -15 -13 0 -22 16 -14 24 11 11 23 6 23 -9z"/>
<path d="M713 249 c-27 -10 -31 -50 -8 -69 24 -20 65 3 65 34 0 31 -27 47 -57
35z m27 -34 c0 -8 -4 -15 -9 -15 -13 0 -22 16 -14 24 11 11 23 6 23 -9z"/>
<path d="M178 189 c-26 -15 -23 -58 5 -68 29 -11 57 4 57 32 0 40 -28 56 -62
36z m34 -34 c0 -5 -5 -11 -11 -13 -6 -2 -11 4 -11 13 0 9 5 15 11 13 6 -2 11
-8 11 -13z"/>
</g>
</svg>
